<?xml version="1.0" encoding="UTF-8"?>
<svg id="Layer_2" data-name="Layer 2" xmlns="http://www.w3.org/2000/svg" viewBox="0 0 238.35 211.64">
  <defs>
    <style>
      .cls-1 {
        fill: #211915;
      }
    </style>
  </defs>
  <g id="Layer_1-2" data-name="Layer 1">
    <g>
      <path class="cls-1" d="M170.26,124.32c-.91-21.3-.07-41.58-4.66-63.29-.2-1.63-1.42-2.73-3.32-3.46-.08.75-.3,1.5-.62,2.19.19-.01.38-.02.57-.03,1.94,5.76,8.69,61.1.56,73.19-9.83,9.75-14.16,22.53-25.8,30.87-23.77,7.89-68.07,7.51-79.69-3.99-11.19-28.35-11.6-66.2-5.8-92.01,3.42-6.93,12.16-5.73,19.59-8.33,9.23-.94,19.51-6.48,29.82-6.42.48.18.96.33,1.45.5-1.21-1.06-1.84-2.38-2.01-3.74-3.41-.27-6.96.2-10.79,2.04-35.35,11.96-39.9-4.14-45.08,36.52-.44,68.26,6.07,79.26,32.25,83.26,70.82,6.45,66.33-7.42,83.73-29.13,3.36-6.98,10.33-7.76,9.8-18.19"/>
      <path class="cls-1" d="M96.78,131.57c2.7.32,73.1,4.45,57.82-3.97-20.29.93-58.01,4.69-60.53-1.18-3.63-8.49-3.27-35.25.08-53.63,1.08-.6,1.2-12.11-1.11-9.18-10.62,16.38,3.71,67.57-6.37,70.31.51,5.31,8.16-1.75,10.11-2.35"/>
      <path class="cls-1" d="M30.56,93.37c-.63-.24-1.23-.57-1.86-.77-1.74-.54-3.17-.1-3.66,1.09-.49,1.19.2,2.61,1.87,3.28,2.62,1.05,32.17,11.65,34.21,12.44.91.35,2,.55,2.92.47,1.1-.1,1.65-.89,1.66-1.9.02-1.16-.76-1.99-1.94-2.56-1.9-.91-31.91-11.57-33.21-12.06"/>
      <path class="cls-1" d="M29.96,97.76c.2-.64.49-1.26.64-1.91.42-1.77-.12-3.17-1.33-3.57-1.22-.41-2.59.37-3.15,2.09-.87,2.68-9.45,32.88-10.11,34.97-.29.93-.42,2.03-.27,2.94.17,1.09,1.01,1.59,2,1.53,1.16-.06,1.93-.9,2.42-2.11.78-1.96,9.39-32.62,9.79-33.94"/>
      <path class="cls-1" d="M10.24,137.72c-2.27.31-4.25.59-6.22.84-.64.08-1.31.2-1.93.15-1.36-.11-2.19-1.02-2.08-2.12.11-1.1,1.13-2.11,2.51-2.33,1.57-.26,3.15-.42,4.81-.83-.84-.15-1.68-.29-2.5-.46-.68-.14-1.39-.26-2-.52-1.13-.49-1.49-1.6-.98-2.62.51-1.02,1.76-1.67,3.07-1.51,1.24.15,2.46.39,3.79.42-.7-.28-1.43-.52-2.1-.85-1.02-.49-1.5-1.29-1.18-2.39.29-.98,1.08-1.6,2.2-1.79.5-.09,1.06-.05,1.53.08.81.22,1.66.44,2.33.85,2.56,1.57,5.08,3.2,7.56,4.85.53.35.92.87,1.25,1.38.7,1.06.24,2.34-.98,3.22-.33.24-.49.66-.73,1-.02.03,0,.07-.01.1-.31,1.74-5.44,6.64-7.44,7.09-1.17.27-2.1,0-2.66-.81-.54-.79-.38-1.65.34-2.46.33-.38.77-.7,1.42-1.27"/>
      <path class="cls-1" d="M99.38,52.87c1.84,1.95,4.08,3.4,6.34,4.8,2.59,1.61,5.18,3.2,7.77,4.8,4.84,2.99,9.65,6.19,14.99,8.22,5.25,2,10.92,2.75,16.52,2.66,5.12-.08,10.05-1.11,13.35-5.34,1.54-1.98,2.62-4.29,3.42-6.66,1.03-3.03,1.71-6.22,1.12-9.41-.18-.96-3.91-.09-3.71.99.84,4.53-.85,9.73-3.15,13.64-.99,1.67-2.32,3.35-4.07,4.26-1.96,1.03-4.63.82-6.78.79-5.05-.06-10.1-1-14.76-2.94-4.83-2.01-9.22-4.95-13.66-7.68-2.52-1.56-5.04-3.11-7.56-4.67-2.27-1.4-4.5-2.86-6.34-4.8-.73-.77-4.21.56-3.48,1.33"/>
      <path class="cls-1" d="M104.32,55.65c18.07-5.61,38.13-7.92,55.82.27.78.36,1.93.06,2.62-.37.47-.29,1.15-1,.35-1.37-14.3-6.62-30.64-6.76-45.86-3.71-4.52.91-8.98,2.08-13.39,3.44-.5.15-1.82.61-1.62,1.37.19.72,1.63.52,2.09.37"/>
      <path class="cls-1" d="M103.43,53.39c18.51-5.64,39.04-8.03,57.2.15.78.35,1.92.06,2.62-.37.47-.29,1.15-1.01.35-1.37-14.66-6.6-31.36-6.71-46.9-3.63-4.64.92-9.21,2.1-13.73,3.48-.5.15-1.82.61-1.62,1.37.2.73,1.62.51,2.09.37"/>
      <path class="cls-1" d="M134.57,27.98c3.34-1.55,6.21-3.92,8.16-7.05-1.23.28-2.46.55-3.68.83,1.12,1.91,2.31,3.88,4.16,5.18,1.82,1.28,4.1,1.85,6.3,1.77.88-.03,1.87-.21,2.62-.7.53-.35.57-.8-.21-.78-1.97.06-3.86-.53-5.44-1.71-1.65-1.23-2.7-3.02-3.73-4.77-.28-.48-1.36-.2-1.75-.11-.61.14-1.57.36-1.93.94-1.6,2.57-3.88,4.66-6.63,5.94-.38.18-1.19.66-.46.93.71.26,1.96-.19,2.59-.48"/>
      <path class="cls-1" d="M131.39,28.63c-.02,3.66-.14,7.79,1.55,11.15.76,1.52,1.9,2.35,3.46,2.93,1.61.6,2.98,1.51,3.89,3.02.61,1,4.1-.35,3.71-.99-.83-1.38-1.97-2.43-3.44-3.11-.74-.35-1.58-.53-2.28-.96-.73-.45-1.26-1.12-1.63-1.88-1.69-3.36-1.56-7.49-1.55-11.15,0-.75-3.7-.18-3.71.99"/>
      <path class="cls-1" d="M148.58,28.51c.48,2.4.48,4.83.43,7.27-.02,1.07-.01,2.25-.49,3.24-.42.87-1.3,1.39-2.07,1.91-1.67,1.14-3.33,2.46-4.3,4.27-.37.7-1,1.88.05,2.3,1.11.44,3.07-.15,3.55-1.28.32-.76-1.23-.74-1.57-.69-.75.1-1.8.43-2.12,1.2l-.05.13,1.62-1.1c-.05.01-.11.03-.16.04h1.71c-.05-.03-.1-.06-.15-.08l.37.36c-.2-.65.66-1.7,1.04-2.17.5-.62,1.11-1.14,1.74-1.62,1.36-1.04,3.01-1.84,3.86-3.41.84-1.55.7-3.44.72-5.15.02-2.09-.04-4.17-.45-6.22-.23-1.15-3.96-.25-3.71.99"/>
      <path class="cls-1" d="M148.49,10.54c-3.45-.79-6.94-.37-10.4.13-3.25.47-6.43,1.25-9.17,3.14-2.59,1.79-4.63,4.23-7.47,5.68-2.97,1.52-6.08,1.93-9.37,2.1-3.21.17-6.6.28-9.57,1.64-1.27.58-2.37,1.46-2.89,2.79-.54,1.38-.79,2.64-1.77,3.83-4.05,4.93-11.17,4.8-16.6,7.24-1.41.64-2.97,1.73-3.18,3.4-.21,1.65.98,3.05,2.01,4.18,2.68,2.95,5.58,5.69,8.61,8.28,1.19,1.01,4.47-.72,2.88-2.08-2.44-2.08-4.77-4.29-6.98-6.61-.88-.93-2.22-2.04-2.64-3.28-.55-1.63,1.25-1.98,2.43-2.36,5.42-1.74,11.28-2.64,15.56-6.71.87-.83,1.64-1.79,2.22-2.84.29-.52.5-1.07.69-1.63.18-.57.26-1.32.68-1.76.73-.76,2.3-.94,3.28-1.1,1.62-.26,3.27-.3,4.91-.39,6.01-.31,11.47-1.88,16.11-5.87,1.21-1.04,2.37-2.15,3.7-3.05,1.36-.91,2.93-1.39,4.52-1.73,3.2-.67,7.04-1.35,10.27-.61.89.21,2,.04,2.62-.7.5-.59.41-1.51-.46-1.71"/>
      <path class="cls-1" d="M89.36,52.98c2.05.44,4.13.55,6.22.33.83-.09,1.65-.21,2.48-.23-.34,0,.33.01.39.02.17.01.34.02.51.05-.25-.04.33.1.39.12.17.06.2.08.41.2.79.45,1.93.21,2.64-.28.56-.39,1.05-1.25.26-1.7-1.77-1-3.83-.91-5.79-.69-1.9.21-3.47.3-5.32-.1-.89-.19-1.97.02-2.62.7-.53.56-.41,1.39.42,1.57"/>
      <path class="cls-1" d="M146.1,12.46c6.21,2.61,10.15,8.41,15.5,12.27,1.31.95,2.72,1.77,4.22,2.37,1.46.57,3.7.6,4.07,2.43.39,1.93-1.27,3.59-2.36,4.97-1.28,1.61-2.51,3.27-3.61,5.01-2.43,3.8-4.29,8.07-4.37,12.64-.03,1.62,3.7.89,3.72-.43.07-4.24,1.68-8.14,3.9-11.7,1.17-1.87,2.48-3.64,3.84-5.37,1.16-1.47,2.57-3.04,2.67-5,.09-1.79-.89-3.16-2.58-3.71-1.67-.54-3.22-.99-4.75-1.88-3.01-1.76-5.47-4.28-7.97-6.67-2.8-2.67-5.74-5.28-9.34-6.79-.83-.35-1.89-.17-2.63.32-.47.31-1.15,1.18-.3,1.54"/>
      <path class="cls-1" d="M200.2,111.74c.61.27,1.19.63,1.82.87,1.71.63,3.16.26,3.71-.9.55-1.16-.06-2.62-1.7-3.37-2.56-1.18-31.53-13.28-33.53-14.18-.89-.4-1.97-.66-2.89-.62-1.11.04-1.7.81-1.76,1.81-.07,1.16.66,2.03,1.81,2.65,1.85,1.01,31.28,13.19,32.54,13.75"/>
      <path class="cls-1" d="M201.03,107.38c-.23.63-.55,1.23-.74,1.87-.51,1.75-.04,3.17,1.15,3.64,1.19.47,2.6-.24,3.25-1.92,1.01-2.63,11.12-32.35,11.88-34.41.34-.91.52-2.01.43-2.92-.12-1.1-.92-1.64-1.92-1.63-1.16,0-1.98.8-2.52,1.98-.88,1.91-11.05,32.1-11.52,33.4"/>
      <path class="cls-1" d="M222.77,68.48c2.29-.19,4.27-.37,6.26-.52.65-.05,1.32-.13,1.94-.05,1.35.18,2.13,1.12,1.97,2.23-.16,1.1-1.23,2.05-2.62,2.2-1.59.18-3.17.25-4.85.58.83.2,1.66.38,2.48.59.67.18,1.38.33,1.97.62,1.1.55,1.41,1.68.84,2.67-.56.99-1.85,1.58-3.15,1.36-1.23-.21-2.43-.52-3.77-.61.69.31,1.41.59,2.06.95,1,.55,1.43,1.36,1.05,2.45-.34.96-1.16,1.54-2.29,1.67-.51.06-1.07,0-1.52-.16-.8-.26-1.64-.53-2.28-.97-2.48-1.7-4.91-3.45-7.3-5.23-.51-.38-.87-.91-1.18-1.44-.65-1.09-.12-2.35,1.15-3.16.34-.22.53-.63.78-.96.02-.03.01-.07.02-.1.4-1.72,5.78-6.35,7.79-6.7,1.19-.21,2.1.1,2.61.95.5.81.29,1.66-.46,2.44-.35.36-.8.66-1.48,1.2"/>
      <path class="cls-1" d="M95.91,172.95c.66-6.23,1.33-12.46,1.99-18.7.18-1.72-.67-3.41-2.48-3.78-1.57-.32-3.6.76-3.78,2.49-.7,6.55-1.37,13.1-2.09,19.65-.29,2.61-.51,5.64-2.01,7.9-1.31,1.97-3.65,2.33-5.83,2.51-12.15,1.02-24.49.8-36.64-.11-.86-.07-9.19-1.72-11.28,5.31-1.9,6.39-3.39,12.79-3.66,19.46-.07,1.77.82,3.28,2.29,3.95,1.68.76,14.03-15.18,15.32-21.66.2-.14.39-.3.55-.48,9.32.6,18.67.72,28.01.28,4.55-.21,10.07.03,13.88-2.89,4.34-3.32,5.2-8.82,5.74-13.91"/>
      <path class="cls-1" d="M218,81.59c-.25,1.44-.68,2.87-.86,4.31-.49,3.94.67,6.76,2.88,7.21,2.21.45,4.52-1.68,5.26-5.55,1.15-6.05,11.91-73.73,12.76-78.44.38-2.09.44-4.5.06-6.4-.47-2.29-2.01-3.06-3.77-2.6-2.05.53-3.29,2.58-3.97,5.34-1.1,4.46-11.83,73.14-12.36,76.12"/>
      <path class="cls-1" d="M158.3,144.38c-6.18,1.03-12.36,2.07-18.55,3.1-1.7.28-3.1,1.57-2.98,3.41.11,1.6,1.7,3.26,3.41,2.98,6.49-1.09,12.99-2.2,19.49-3.26,2.59-.42,5.57-1.02,8.15-.19,2.25.73,3.22,2.89,3.99,4.94,4.25,11.43,7.35,23.38,9.73,35.33.17.85.81,9.32,8.14,9.44,6.66.11,13.23-.17,19.72-1.7,1.73-.41,2.94-1.67,3.19-3.27.28-1.82-18.39-9.44-24.98-8.94-.19-.16-.39-.3-.61-.41-1.93-9.14-4.32-18.18-7.25-27.05-1.43-4.33-2.68-9.7-6.51-12.6-4.36-3.29-9.89-2.64-14.94-1.79"/>
      <path class="cls-1" d="M111.58,88.04c1.43-.2,2.62-.08,3.55.38.68.31,1.09.72,1.23,1.25.14.53-.04.92-.57,1.17-.21.13-.4.18-.57.15-.17-.02-.49-.14-.96-.35-.37-.18-.65-.29-.86-.33-.21-.04-.49-.03-.86.04-.37.06-.65.11-.86.13-.39,0-1.09.25-2.09.75-1,.5-1.79.98-2.36,1.44-.52.46-.87.88-1.05,1.27-.18.38-.27.91-.27,1.58,0,.46.04.81.12,1.04.08.23.26.55.55.96,1.49,1.97,3.79,2.96,6.92,2.96,1.3,0,2.16-.09,2.58-.27.31-.13.53-.19.66-.17.13.01.34.1.62.25.29.18.46.33.53.44.06.12.07.33.02.63-.03.59-.27.98-.72,1.17-.46.19-1.4.31-2.83.37-1.46.03-2.6-.03-3.42-.17-.82-.14-1.73-.45-2.71-.94-.83-.41-1.65-.99-2.46-1.75-.81-.75-1.39-1.48-1.76-2.17-.47-.9-.64-1.9-.53-2.99.12-1.1.5-2.05,1.15-2.84.65-.82,1.71-1.64,3.16-2.48,1.46-.83,2.72-1.34,3.79-1.52"/>
      <path class="cls-1" d="M124.59,82.27c.18-.31.46-.42.82-.35.47.1.79.32.98.65.18.33.32.97.43,1.92.29,2.46.31,4.52.08,6.18l-.16,1.08,1.68.11c2.81.18,4.41.41,4.8.69.18.15.27.44.25.86-.01.42-.11.71-.29.86-.29.21-1.82.23-4.61.08l-2.11-.15-.43,1.46c-.31,1.2-.65,2.51-1.02,3.92-.42,1.64-.79,2.65-1.13,3.03-.23.26-.4.4-.51.44-.11.04-.27,0-.51-.13-.34-.18-.57-.49-.7-.92s-.13-.92,0-1.46c.13-.54.2-1.05.2-1.54s.18-1.1.55-1.77c.36-.69.6-1.36.7-2l.12-1h-1.6c-1.02,0-1.77-.06-2.27-.19-.6-.15-.96-.45-1.09-.88-.13-.43.02-.82.47-1.15.21-.18.46-.28.76-.31.3-.03.97-.01,2.01.04l2.3.11-.04-4.57c0-1.97.01-3.25.04-3.84.03-.59.12-.99.27-1.19"/>
      <path class="cls-1" d="M142.91,87.46c.68-.15,1.37-.18,2.09-.08.72.1,1.18.3,1.39.58.18.26.26.58.24.98-.03.4-.14.71-.35.94-.47.49-1.04.52-1.72.11-.23-.13-.43-.2-.59-.21-.16-.01-.42.03-.78.13-1.88.56-3.45,2.06-4.73,4.49-.94,1.77-1.5,3.39-1.68,4.88-.1.92-.4,1.52-.88,1.8-.48.28-.94.13-1.39-.46-.16-.23-.24-.46-.25-.67-.01-.22.03-.72.14-1.52.36-2.38.59-4.74.66-7.07.08-1.64.22-2.57.43-2.8.44-.49.91-.52,1.41-.12.49.41.74,1.04.74,1.88,0,.36.04.54.12.54.02,0,.42-.35,1.17-1.04.55-.51,1.21-1,1.99-1.48.78-.47,1.45-.77,1.99-.9"/>
      <path class="cls-1" d="M152.05,84.12c.13-.26.4-.38.82-.38.99,0,1.34.77,1.05,2.3-.03.15-.07.42-.14.79-.07.37-.14.83-.23,1.38-.09.55-.16,1.01-.22,1.36-.47,2.94-1.08,5.89-1.84,8.83-.05.18-.13.45-.23.81-.81,3.12-1.32,4.93-1.54,5.43-.22.5-.57.74-1.03.71-.03-.02-.05-.04-.08-.04-.5-.03-.82-.21-.98-.56-.16-.35-.22-1-.2-1.98.03-.72.07-1.18.14-1.4.07-.22.2-.42.41-.6.34-.28.69-1.14,1.05-2.57.7-2.46,1.25-4.84,1.64-7.14.03-.23.12-.76.29-1.59.17-.83.25-1.49.25-1.98,0-.36.1-.93.29-1.71.2-.78.37-1.34.53-1.67"/>
    </g>
  </g>
</svg>