<?xml version="1.0" encoding="UTF-8"?>
<svg id="Layer_2" data-name="Layer 2" xmlns="http://www.w3.org/2000/svg" viewBox="0 0 203.02 214.04">
  <defs>
    <style>
      .cls-1 {
        fill: #211915;
      }
    </style>
  </defs>
  <g id="Layer_1-2" data-name="Layer 1">
    <g>
      <path class="cls-1" d="M92.84,119.89c2.71.32,73.1,4.45,57.82-3.97-20.29.93-58.01,4.69-60.53-1.18-3.63-8.49-3.27-35.25.08-53.63,1.08-.6,1.2-12.11-1.11-9.18-10.62,16.38,3.71,67.57-6.36,70.31.51,5.31,8.16-1.75,10.1-2.35"/>
      <path class="cls-1" d="M22.96,90.25c-.66-.13-1.3-.36-1.96-.45-1.8-.25-3.14.43-3.43,1.68-.28,1.25.63,2.54,2.39,2.92,2.75.6,33.65,6.15,35.8,6.59.95.2,2.06.21,2.95-.02,1.07-.28,1.48-1.16,1.33-2.15-.18-1.15-1.08-1.84-2.34-2.2-2.02-.59-33.39-6.11-34.75-6.38"/>
      <path class="cls-1" d="M23.09,94.68c.09-.67.27-1.32.32-1.99.12-1.82-.64-3.11-1.91-3.3-1.27-.2-2.49.8-2.75,2.58-.41,2.79-3.86,33.99-4.16,36.17-.13.96-.08,2.07.22,2.95.35,1.05,1.26,1.4,2.23,1.18,1.14-.26,1.76-1.21,2.04-2.48.45-2.06,3.84-33.73,4.02-35.1"/>
      <path class="cls-1" d="M10.28,137.36c-2.19.68-4.09,1.28-6,1.86-.62.19-1.26.42-1.88.47-1.35.12-2.32-.64-2.4-1.75-.08-1.1.76-2.26,2.08-2.72,1.51-.51,3.04-.93,4.61-1.61-.85-.01-1.7,0-2.55-.04-.69-.03-1.42-.02-2.06-.18-1.2-.3-1.74-1.33-1.4-2.42.34-1.09,1.46-1.94,2.78-2,1.25-.06,2.49-.02,3.81-.22-.74-.16-1.5-.28-2.22-.48-1.09-.32-1.7-1.02-1.55-2.16.12-1.01.8-1.75,1.88-2.13.48-.17,1.04-.22,1.52-.18.84.08,1.71.16,2.44.46,2.79,1.12,5.54,2.31,8.26,3.53.58.26,1.05.7,1.47,1.15.87.93.63,2.27-.44,3.33-.29.29-.38.73-.55,1.1-.02.03,0,.07,0,.1-.02,1.76-4.26,7.45-6.15,8.23-1.11.46-2.07.35-2.76-.36-.66-.69-.65-1.56-.08-2.48.27-.43.64-.81,1.18-1.49"/>
      <path class="cls-1" d="M199.08,53.13c.62-.26,1.28-.42,1.89-.71,1.64-.8,2.38-2.1,1.92-3.3-.46-1.2-1.93-1.77-3.61-1.11-2.62,1.03-31.41,13.56-33.44,14.38-.9.37-1.84.97-2.45,1.65-.74.83-.59,1.79.09,2.52.79.86,1.92.93,3.16.53,2.01-.63,31.17-13.45,32.45-13.97"/>
      <path class="cls-1" d="M196.51,49.52c.3.6.51,1.25.84,1.83.91,1.58,2.26,2.23,3.42,1.69,1.16-.54,1.63-2.04.86-3.68-1.2-2.55-15.65-30.42-16.61-32.4-.42-.88-1.09-1.77-1.81-2.33-.88-.68-1.82-.47-2.51.26-.8.84-.79,1.98-.32,3.19.77,1.96,15.52,30.19,16.13,31.43"/>
      <path class="cls-1" d="M183.48,6.9c1.44-1.78,2.69-3.34,3.95-4.88.41-.5.82-1.05,1.3-1.43,1.06-.85,2.29-.76,2.97.12.68.87.62,2.31-.23,3.42-.97,1.27-2.01,2.47-2.93,3.9.71-.46,1.42-.94,2.14-1.38.59-.36,1.19-.77,1.81-.99,1.16-.42,2.18.14,2.51,1.24.33,1.09-.14,2.43-1.2,3.21-1.01.74-2.06,1.4-3.05,2.3.7-.28,1.4-.6,2.11-.83,1.08-.34,1.98-.09,2.49.94.46.91.3,1.9-.38,2.81-.31.41-.74.76-1.17.99-.74.4-1.52.82-2.28.97-2.94.61-5.89,1.15-8.83,1.65-.62.1-1.27,0-1.86-.14-1.24-.29-1.78-1.54-1.49-3.02.08-.4-.09-.82-.16-1.23,0-.03-.04-.05-.06-.08-.97-1.48-.59-8.57.55-10.26.67-1,1.53-1.44,2.49-1.23.93.2,1.4.94,1.44,2.02.02.5-.08,1.03-.16,1.9"/>
      <path class="cls-1" d="M116.27,132.83c-6.17,1.07-12.35,2.15-18.53,3.22-1.7.3-3.09,1.59-2.95,3.43.12,1.59,1.72,3.25,3.43,2.96,6.49-1.13,12.97-2.28,19.47-3.39,2.59-.44,5.57-1.06,8.15-.24,2.25.71,3.24,2.87,4.02,4.92,4.32,11.41,7.5,23.33,9.96,35.27.17.85.87,9.31,8.2,9.39,6.66.07,13.23-.25,19.71-1.82,1.73-.42,2.93-1.69,3.17-3.29.27-1.82-18.45-9.32-25.04-8.78-.19-.16-.39-.29-.61-.4-1.99-9.13-4.44-18.15-7.42-27.01-1.46-4.32-2.74-9.69-6.59-12.55-4.38-3.26-9.9-2.58-14.95-1.7"/>
      <path class="cls-1" d="M116.79,172c.33-6.26.65-12.52.98-18.78.09-1.72-.86-3.37-2.68-3.64-1.58-.24-3.55.95-3.65,2.68-.34,6.58-.66,13.16-1.03,19.73-.15,2.62-.21,5.66-1.58,8-1.2,2.04-3.52,2.52-5.69,2.82-12.08,1.67-24.42,2.12-36.6,1.86-.86-.02-9.27-1.23-10.98,5.9-1.55,6.48-2.7,12.96-2.61,19.62.02,1.78.99,3.23,2.5,3.82,1.72.67,13.19-15.91,14.13-22.46.2-.15.37-.32.53-.51,9.34.1,18.68-.29,27.98-1.23,4.53-.46,10.05-.51,13.7-3.63,4.16-3.55,4.72-9.08,4.98-14.2"/>
      <path class="cls-1" d="M85.07,40.32c13.54-6.5,23.5,4.1,36.74,3.91,6.97,3.25,38.2-3.62,39.29,5.27,4.6,21.71,3.75,41.99,4.66,63.29.53,10.43-6.44,11.21-9.8,18.18-17.4,21.71-12.9,35.58-83.73,29.13-26.18-4-32.69-15-32.25-83.26,5.18-40.66,9.73-24.56,45.08-36.52M96.42,41.52c-10.32-.06-20.59,5.47-29.82,6.42-7.42,2.6-16.17,1.41-19.59,8.33-5.8,25.81-5.39,63.66,5.8,92.01,11.62,11.5,55.92,11.88,79.69,3.99,11.63-8.34,15.97-21.12,25.8-30.87,8.13-12.1,1.38-67.43-.56-73.19-21.37,1.18-41.56.59-61.32-6.69"/>
      <path class="cls-1" d="M108.66,71.56c.91-.18,1.87-.18,2.89,0,.89.15,1.55.35,2.01.6.45.24,1,.68,1.62,1.32.68.72,1.13,1.35,1.37,1.9.23.55.35,1.26.35,2.13.03.95-.08,1.64-.33,2.07-.25.43-.76.91-1.54,1.42-.73.46-1.34.79-1.84,1-.49.21-1.22.44-2.19.69-.78.18-1.8.31-3.07.38-1.26.08-2.14.05-2.64-.08l-.55-.15v1.08c0,.77.13,1.34.39,1.71.26.37.77.74,1.52,1.1l1.25.58h6.6l1.99-1c1.09-.54,1.84-.83,2.23-.88.39-.05.7.12.94.5.36.56.09,1.18-.82,1.86-.91.68-2.16,1.23-3.73,1.65-1.58.42-3.08.6-4.51.52-3.93-.26-6.45-1.34-7.56-3.25-1.11-1.91-.97-4.93.41-9.08.94-2.87,2.03-4.68,3.28-5.45.44-.26,1.08-.46,1.91-.62M112.84,74.48c-.29-.18-.58-.29-.88-.35-.3-.05-.87-.08-1.7-.08-1.28,0-2.06.07-2.34.19-.65.31-1.35,1.56-2.11,3.76-.73,2.15-.89,3.21-.47,3.19.1-.02.22-.1.35-.23.13-.13.95-.24,2.46-.35,1.25-.08,2.12-.17,2.6-.29.48-.11,1.1-.36,1.86-.75.78-.36,1.29-.67,1.54-.94.25-.27.37-.63.37-1.09,0-.51-.18-1.08-.53-1.71-.35-.63-.74-1.08-1.15-1.36"/>
      <path class="cls-1" d="M125.45,77.1c2.76-1.05,4.94-1.34,6.52-.88,1.12.31,1.58.86,1.37,1.65-.21.74-.83.96-1.88.65-.55-.15-1.05-.19-1.52-.12-.1.02-.39.08-.84.17-.46.09-.8.15-1.04.17-.76.13-1.43.33-2.03.62-.6.28-.87.51-.82.69.05.36,1.43,1.22,4.14,2.57,1.56.77,2.69,1.52,3.38,2.26.69.74,1.03,1.56,1.03,2.46,0,1.13-.59,2.01-1.76,2.65-.49.26-.91.41-1.25.46-.34.05-1.21.06-2.62.04-1.41,0-2.32-.03-2.75-.1-.43-.06-1.14-.26-2.13-.6-1.09-.38-1.82-.69-2.17-.92-.35-.23-.53-.51-.53-.84,0-.51.29-.87.86-1.08.57-.21,1.09-.15,1.56.15.76.51,2.17.85,4.24,1.02,2.07.17,3.34.04,3.81-.37.29-.28.43-.5.43-.65s-.24-.43-.72-.85c-.48-.41-1.04-.78-1.66-1.11-1.77-.95-2.7-1.45-2.77-1.5-1.59-.85-2.69-1.56-3.3-2.13-.61-.58-.92-1.18-.92-1.82,0-.49.26-.93.78-1.33.52-.4,1.38-.82,2.58-1.29"/>
      <path class="cls-1" d="M142.68,74.98c1.43-.2,2.62-.08,3.55.38.68.31,1.09.72,1.23,1.25.14.53-.04.92-.57,1.17-.21.13-.4.18-.57.15-.17-.02-.49-.14-.96-.35-.36-.18-.65-.29-.86-.33-.21-.04-.49-.03-.86.04-.36.06-.65.11-.86.13-.39,0-1.09.25-2.09.75-1,.5-1.79.98-2.36,1.44-.52.46-.87.88-1.05,1.27-.18.38-.27.91-.27,1.58,0,.46.04.81.12,1.04.08.23.26.55.55.96,1.49,1.97,3.79,2.96,6.91,2.96,1.3,0,2.16-.09,2.58-.27.31-.13.53-.19.66-.17.13.01.34.1.62.25.29.18.46.33.53.44.07.12.07.33.02.63-.03.59-.27.98-.72,1.17-.46.19-1.4.31-2.83.37-1.46.03-2.6-.03-3.42-.17-.82-.14-1.72-.45-2.71-.94-.83-.41-1.65-.99-2.46-1.75-.81-.75-1.39-1.48-1.76-2.17-.47-.9-.65-1.9-.53-2.99.12-1.1.5-2.05,1.15-2.84.65-.82,1.71-1.64,3.16-2.48,1.46-.83,2.72-1.34,3.79-1.52"/>
    </g>
  </g>
</svg>