<?xml version="1.0" encoding="UTF-8"?>
<svg id="Layer_2" xmlns="http://www.w3.org/2000/svg" version="1.1" viewBox="0 0 203 214">
  <!-- Generator: Adobe Illustrator 29.2.1, SVG Export Plug-In . SVG Version: 2.1.0 Build 116)  -->
  <defs>
    <style>
      .st0 {
        fill: #0f0;
      }

      .st1 {
        fill: #211915;
      }
    </style>
  </defs>
  <path class="st0" d="M203,49.8c0,.7-.4,1.5-1.2,2.1-.2.5-.6.9-1.1,1.2-.5.2-1,.2-1.6,0,0,0,0,0-.1,0-1.4.6-30.4,13.3-32.4,14-1.1.4-2.1.3-2.9-.2,1.6,15.4,1.3,30.4,2,46,.5,10.4-6.4,11.2-9.8,18.2-6.9,8.6-10.4,16-16.4,21.4,2.2,7.2,4.1,14.4,5.7,21.8.2.1.4.2.6.4,6.6-.5,25.3,7,25,8.8-.2,1.6-1.4,2.9-3.2,3.3-6.5,1.6-13.1,1.9-19.7,1.8-7.3,0-8-8.5-8.2-9.4-1.6-7.7-3.5-15.4-5.8-22.9-4.1,2.2-9.4,3.8-16.7,4.8-.2,3.7-.4,7.4-.6,11.1h0c-.3,5.1-.8,10.6-5,14.2-3.7,3.1-9.2,3.2-13.7,3.6-9.3.9-18.6,1.3-28,1.2-.2.2-.3.4-.5.5-.9,6.5-12.4,23.1-14.1,22.5-1.5-.6-2.5-2-2.5-3.8,0-6.7,1.1-13.1,2.6-19.6,1.7-7.1,10.1-5.9,11-5.9,12.2.3,24.5-.2,36.6-1.9,2.2-.3,4.5-.8,5.7-2.8,1.4-2.3,1.4-5.4,1.6-8,.2-3.5.4-7,.6-10.5-9.6.6-22.1.2-38.7-1.3-23.2-3.5-30.9-12.6-32.1-62-6.4-1.2-13.2-2.4-17.1-3.1-.4,3.3-3.2,29.2-3.9,34.1.7.9.5,2.2-.6,3.2-.3.3-.4.7-.5,1.1,0,0,0,0,0,0,0,1.8-4.3,7.5-6.2,8.2-1.1.5-2.1.3-2.8-.4-.7-.7-.7-1.6,0-2.5.3-.4.6-.8,1.2-1.5h0c-2.2.7-4.1,1.3-6,1.8-.6.2-1.3.4-1.9.5-1,0-1.7-.3-2.1-.9v-2.1c.3-.6,1-1.2,1.8-1.5,1.5-.5,3-.9,4.6-1.6-.8,0-1.7,0-2.5,0-.7,0-1.4,0-2.1-.2-1.2-.3-1.7-1.3-1.4-2.4.3-1.1,1.5-1.9,2.8-2,1.2,0,2.5,0,3.8-.2-.7-.2-1.5-.3-2.2-.5-1.1-.3-1.7-1-1.6-2.2.1-1,.8-1.8,1.9-2.1.5-.2,1-.2,1.5-.2.8,0,1.7.2,2.4.5,1.8.7,3.6,1.5,5.4,2.3.7-6,3-26.3,3.8-32.8-.8-.6-1.2-1.4-1-2.3.2-1,1.1-1.6,2.4-1.7.5-.3,1-.5,1.5-.4.6,0,1,.4,1.3.8,0,0,0,0,.1,0h0c.7.1,8.8,1.6,17.1,3,0-5.1,0-10.5,0-16.5,5.2-40.7,9.7-24.6,45.1-36.5h0c13.5-6.5,23.5,4.1,36.7,3.9,7,3.2,38.2-3.6,39.3,5.3,1,4.9,1.8,9.7,2.4,14.5.6-.6,1.5-1.2,2.4-1.6,1.7-.7,22.5-9.7,30.5-13.1-1.5-2.9-13.5-25.9-15.7-30.5-1.1-.3-1.6-1.5-1.3-3,0-.4,0-.8-.2-1.2,0,0,0,0,0,0-1-1.5-.6-8.6.6-10.3.7-1,1.5-1.4,2.5-1.2.9.2,1.4.9,1.4,2,0,.5,0,1-.2,1.9h0c1.4-1.8,2.7-3.3,3.9-4.9.4-.5.8-1,1.3-1.4,1.1-.8,2.3-.8,3,.1.7.9.6,2.3-.2,3.4-1,1.3-2,2.5-2.9,3.9.7-.5,1.4-.9,2.1-1.4.6-.4,1.2-.8,1.8-1,1.2-.4,2.2.1,2.5,1.2.3,1.1-.1,2.4-1.2,3.2-1,.7-2.1,1.4-3.1,2.3.7-.3,1.4-.6,2.1-.8,1.1-.3,2,0,2.5.9.5.9.3,1.9-.4,2.8-.3.4-.7.8-1.2,1-.7.4-1.5.8-2.3,1-1.9.4-3.8.8-5.8,1.1,2.8,5.4,12.2,23.5,15.1,29.3,1,0,1.8.6,2.1,1.4,0,.2.1.5.1.7Z"/>
  <g id="Layer_1-2">
    <g>
      <path class="st1" d="M92.8,119.9c2.7.3,73.1,4.4,57.8-4-20.3.9-58,4.7-60.5-1.2-3.6-8.5-3.3-35.2,0-53.6,1.1-.6,1.2-12.1-1.1-9.2-10.6,16.4,3.7,67.6-6.4,70.3.5,5.3,8.2-1.8,10.1-2.3h0Z"/>
      <path class="st1" d="M58.7,101c-.9.2-2,.2-3,0-.8-.2-6.1-1.1-12.3-2.3-1.1-.2-2.2-.4-3.3-.6-6.4-1.2-13.2-2.4-17.1-3.1-1.6-.3-2.7-.5-3.1-.6-.6-.1-1-.3-1.4-.6-.8-.6-1.2-1.4-1-2.3.2-1,1.1-1.6,2.4-1.7.3,0,.7,0,1,0,.6,0,1.2.3,1.8.4,0,0,0,0,.1,0h0c.7.1,8.8,1.6,17.1,3,1.1.2,2.2.4,3.3.6,7.1,1.3,13.5,2.5,14.4,2.7,1.3.4,2.2,1,2.3,2.2.1,1-.3,1.9-1.3,2.1Z"/>
      <path class="st1" d="M23.1,94.7h0c0,0,0,.2,0,.3-.4,3.3-3.2,29.2-3.9,34.1,0,.3,0,.6-.1.7-.3,1.3-.9,2.2-2,2.5-1,.2-1.9-.1-2.2-1.2-.3-.9-.3-2-.2-3,0-.2,0-.8.2-1.6.7-6,3-26.3,3.8-32.8,0-.9.2-1.5.2-1.8.2-1,.6-1.8,1.2-2.2.5-.3,1-.5,1.5-.4.6,0,1,.4,1.3.8.4.6.7,1.4.6,2.5,0,.7-.2,1.3-.3,2Z"/>
      <path class="st1" d="M18.6,132.3c-.3.3-.4.7-.5,1.1,0,0,0,0,0,0,0,1.8-4.3,7.5-6.2,8.2-1.1.5-2.1.3-2.8-.4-.7-.7-.7-1.6,0-2.5.3-.4.6-.8,1.2-1.5h0c-2.2.7-4.1,1.3-6,1.8-.6.2-1.3.4-1.9.5-1,0-1.7-.3-2.1-.9-.2-.2-.3-.5-.3-.9,0-.4,0-.9.3-1.2.3-.6,1-1.2,1.8-1.5,1.5-.5,3-.9,4.6-1.6-.8,0-1.7,0-2.5,0-.7,0-1.4,0-2.1-.2-1.2-.3-1.7-1.3-1.4-2.4.3-1.1,1.5-1.9,2.8-2,1.2,0,2.5,0,3.8-.2-.7-.2-1.5-.3-2.2-.5-1.1-.3-1.7-1-1.6-2.2.1-1,.8-1.8,1.9-2.1.5-.2,1-.2,1.5-.2.8,0,1.7.2,2.4.5,1.8.7,3.6,1.5,5.4,2.3,1,.4,1.9.8,2.8,1.2.6.3,1,.7,1.5,1.2,0,0,0,0,.1.2.7.9.5,2.2-.6,3.2Z"/>
      <path class="st1" d="M203,49.8c0,.7-.4,1.5-1.2,2.1-.2.2-.5.4-.9.5-.6.3-1.2.4-1.8.7,0,0,0,0-.1,0-1.4.6-30.4,13.3-32.4,14-1.1.4-2.1.3-2.9-.2-.1,0-.2-.2-.3-.3-.7-.7-.8-1.7,0-2.5,0,0,0,0,0,0,.6-.6,1.5-1.2,2.4-1.6,1.7-.7,22.5-9.7,30.5-13.1,1.5-.6,2.5-1.1,2.9-1.2.5-.2,1.1-.3,1.5-.3,1,0,1.8.6,2.1,1.4,0,.2.1.5.1.7Z"/>
      <path class="st1" d="M201.8,51.9c-.2.5-.6.9-1.1,1.2-.5.2-1,.2-1.6,0-.7-.3-1.3-.8-1.8-1.7-.3-.6-.5-1.2-.8-1.8h0c0,0,0-.1-.1-.3-1.5-2.9-13.5-25.9-15.7-30.5-.2-.3-.3-.5-.3-.7-.5-1.2-.5-2.3.3-3.2.7-.7,1.6-.9,2.5-.3.7.6,1.4,1.4,1.8,2.3,0,.2.4.7.7,1.5,2.8,5.4,12.2,23.5,15.1,29.3.4.8.7,1.3.8,1.6.4.9.5,1.8.2,2.5Z"/>
      <path class="st1" d="M195,15.3c-.3.4-.7.8-1.2,1-.7.4-1.5.8-2.3,1-1.9.4-3.8.8-5.8,1.1-1,.2-2,.4-3.1.5-.6,0-1.3,0-1.9-.1,0,0,0,0-.1,0-1.1-.3-1.6-1.5-1.3-3,0-.4,0-.8-.2-1.2,0,0,0,0,0,0-1-1.5-.6-8.6.6-10.3.7-1,1.5-1.4,2.5-1.2.9.2,1.4.9,1.4,2,0,.5,0,1-.2,1.9h0c1.4-1.8,2.7-3.3,3.9-4.9.4-.5.8-1,1.3-1.4,1.1-.8,2.3-.8,3,.1.7.9.6,2.3-.2,3.4-1,1.3-2,2.5-2.9,3.9.7-.5,1.4-.9,2.1-1.4.6-.4,1.2-.8,1.8-1,1.2-.4,2.2.1,2.5,1.2.3,1.1-.1,2.4-1.2,3.2-1,.7-2.1,1.4-3.1,2.3.7-.3,1.4-.6,2.1-.8,1.1-.3,2,0,2.5.9.5.9.3,1.9-.4,2.8Z"/>
      <path class="st1" d="M170.9,183.3c-.2,1.6-1.4,2.9-3.2,3.3-6.5,1.6-13.1,1.9-19.7,1.8-7.3,0-8-8.5-8.2-9.4-1.6-7.7-3.5-15.4-5.8-22.9-.4-1.4-.8-2.7-1.3-4.1-.9-2.8-1.9-5.6-2.9-8.3-.8-2-1.8-4.2-4-4.9-2.6-.8-5.6-.2-8.2.2-6.5,1.1-13,2.3-19.5,3.4-1.7.3-3.3-1.4-3.4-3-.1-1.8,1.2-3.1,3-3.4,6.2-1.1,12.4-2.2,18.5-3.2h0c5-.9,10.6-1.5,15,1.7,3.8,2.9,5.1,8.2,6.6,12.5,0,.2,0,.3.2.5.5,1.6,1,3.2,1.5,4.8,2.2,7.2,4.1,14.4,5.7,21.8.2.1.4.2.6.4,6.6-.5,25.3,7,25,8.8Z"/>
      <path class="st1" d="M117.8,153.2c0,.9,0,1.7-.1,2.5,0,1.7-.2,3.4-.3,5.1-.2,3.7-.4,7.4-.6,11.1h0c-.3,5.1-.8,10.6-5,14.2-3.7,3.1-9.2,3.2-13.7,3.6-9.3.9-18.6,1.3-28,1.2-.2.2-.3.4-.5.5-.9,6.5-12.4,23.1-14.1,22.5-1.5-.6-2.5-2-2.5-3.8,0-6.7,1.1-13.1,2.6-19.6,1.7-7.1,10.1-5.9,11-5.9,12.2.3,24.5-.2,36.6-1.9,2.2-.3,4.5-.8,5.7-2.8,1.4-2.3,1.4-5.4,1.6-8,.2-3.5.4-7,.6-10.5h0c0-1.6.1-3.2.2-4.8,0-1.5.1-2.9.2-4.4.1-1.7,2.1-2.9,3.7-2.7,1.8.3,2.8,1.9,2.7,3.6Z"/>
      <path class="st1" d="M165.8,112.8c-.7-15.5-.4-30.5-2-46-.1-1-.2-1.9-.3-2.9-.6-4.8-1.3-9.6-2.4-14.5-1.1-8.9-32.3-2-39.3-5.3-13.2.2-23.2-10.4-36.7-3.9h0c-35.3,12-39.9-4.1-45.1,36.5,0,5.9,0,11.4,0,16.5,0,1.7,0,3.2,0,4.8,1.2,49.4,8.9,58.4,32.1,62,16.6,1.5,29.1,1.9,38.7,1.3h0c2.3-.1,4.4-.3,6.4-.6,7.3-.9,12.6-2.5,16.7-4.8,2.1-1.1,3.9-2.4,5.5-3.8,6.1-5.4,9.5-12.8,16.4-21.4,3.4-7,10.3-7.8,9.8-18.2ZM158.3,121.4c-8.1,8.1-12.5,18.2-20.3,26.1-1.6,1.6-3.3,3.1-5.2,4.5,0,0-.2.1-.3.2-4.4,1.5-9.4,2.6-14.9,3.5-2.1.3-4.2.6-6.4.9-22.9,2.6-49.8.2-58.4-8.4-5.9-14.9-8.8-32.5-9.4-49.5,0-1.6,0-3.2-.1-4.8-.1-13.6,1.2-26.7,3.7-37.6,3.4-6.9,12.2-5.7,19.6-8.3,9.2-1,19.5-6.5,29.8-6.4,19.8,7.3,39.9,7.9,61.3,6.7,1.9,5.8,8.7,61.1.6,73.2Z"/>
      <path class="st1" d="M119.7,85.9c-.2-.4-.5-.5-.9-.5s-1.1.3-2.2.9l-2,1h-6.6l-1.2-.6c-.8-.4-1.3-.7-1.5-1.1s-.4-.9-.4-1.7v-1.1l.5.2c.5.1,1.4.2,2.6,0,1.3,0,2.3-.2,3.1-.4,1-.2,1.7-.5,2.2-.7.5-.2,1.1-.5,1.8-1,.8-.5,1.3-1,1.5-1.4.2-.4.4-1.1.3-2.1,0-.9-.1-1.6-.3-2.1-.2-.6-.7-1.2-1.4-1.9-.6-.6-1.2-1.1-1.6-1.3-.5-.2-1.1-.5-2-.6-1-.2-2-.2-2.9,0h0c-.8.2-1.5.4-1.9.6-1.2.8-2.3,2.6-3.3,5.5-1.4,4.1-1.5,7.2-.4,9.1,1.1,1.9,3.6,3,7.6,3.2,1.4,0,2.9,0,4.5-.5,1.6-.4,2.8-1,3.7-1.7.9-.7,1.2-1.3.8-1.9ZM105.8,78c.8-2.2,1.5-3.5,2.1-3.8.3-.1,1.1-.2,2.3-.2s1.4,0,1.7,0c.3,0,.6.2.9.3h0c.4.3.8.7,1.2,1.3.3.6.5,1.2.5,1.7s-.1.8-.4,1.1c-.2.3-.8.6-1.5.9-.8.4-1.4.6-1.9.8-.5.1-1.3.2-2.6.3-1.5.1-2.3.2-2.5.3s-.2.2-.3.2c-.4,0-.3-1,.5-3.2Z"/>
      <path class="st1" d="M125.5,77.1c2.8-1.1,4.9-1.3,6.5-.9,1.1.3,1.6.9,1.4,1.7-.2.7-.8,1-1.9.7-.6-.2-1.1-.2-1.5-.1-.1,0-.4,0-.8.2-.5,0-.8.2-1,.2-.8.1-1.4.3-2,.6-.6.3-.9.5-.8.7,0,.4,1.4,1.2,4.1,2.6,1.6.8,2.7,1.5,3.4,2.3.7.7,1,1.6,1,2.5s-.6,2-1.8,2.7c-.5.3-.9.4-1.2.5-.3,0-1.2,0-2.6,0-1.4,0-2.3,0-2.8,0-.4,0-1.1-.3-2.1-.6-1.1-.4-1.8-.7-2.2-.9-.3-.2-.5-.5-.5-.8,0-.5.3-.9.9-1.1s1.1-.2,1.6.2c.8.5,2.2.8,4.2,1,2.1.2,3.3,0,3.8-.4.3-.3.4-.5.4-.7s-.2-.4-.7-.8c-.5-.4-1-.8-1.7-1.1-1.8-.9-2.7-1.4-2.8-1.5-1.6-.8-2.7-1.6-3.3-2.1-.6-.6-.9-1.2-.9-1.8s.3-.9.8-1.3,1.4-.8,2.6-1.3h0Z"/>
      <path class="st1" d="M142.7,75c1.4-.2,2.6,0,3.6.4.7.3,1.1.7,1.2,1.2s0,.9-.6,1.2c-.2.1-.4.2-.6.2-.2,0-.5-.1-1-.3-.4-.2-.6-.3-.9-.3s-.5,0-.9,0c-.4,0-.6.1-.9.1-.4,0-1.1.2-2.1.8s-1.8,1-2.4,1.4c-.5.5-.9.9-1.1,1.3-.2.4-.3.9-.3,1.6s0,.8.1,1,.3.6.6,1c1.5,2,3.8,3,6.9,3s2.2,0,2.6-.3c.3-.1.5-.2.7-.2.1,0,.3,0,.6.2.3.2.5.3.5.4,0,.1,0,.3,0,.6,0,.6-.3,1-.7,1.2-.5.2-1.4.3-2.8.4-1.5,0-2.6,0-3.4-.2-.8-.1-1.7-.4-2.7-.9-.8-.4-1.6-1-2.5-1.8-.8-.8-1.4-1.5-1.8-2.2-.5-.9-.6-1.9-.5-3,.1-1.1.5-2.1,1.1-2.8.6-.8,1.7-1.6,3.2-2.5,1.5-.8,2.7-1.3,3.8-1.5h0Z"/>
    </g>
  </g>
</svg>