<?xml version="1.0" encoding="UTF-8"?>
<svg id="Layer_2" xmlns="http://www.w3.org/2000/svg" version="1.1" viewBox="0 0 238.4 211.6">
  <!-- Generator: Adobe Illustrator 29.2.1, SVG Export Plug-In . SVG Version: 2.1.0 Build 116)  -->
  <defs>
    <style>
      .st0 {
        fill: #8677b5;
      }
      
      .st1 {
        fill: #211915;
      }
    </style>
  </defs>
  <path class="st0" d="M238.3,0v6.1c0,1-.1,2.1-.3,3.1-.6,3.3-5.9,36.6-9.5,58.9.2,0,.3,0,.5,0,.7,0,1.3-.1,1.9,0,1.4.2,2.1,1.1,2,2.2-.2,1.1-1.2,2-2.6,2.2-.9,0-1.7.2-2.6.2,0,.3,0,.6-.1.8,0,0,.2,0,.3,0,.7.2,1.4.3,2,.6,1.1.5,1.4,1.7.8,2.7-.6,1-1.9,1.6-3.2,1.4-.2,0-.5,0-.7-.1,0,.4-.1.8-.2,1.1.4.5.5,1.1.2,1.8-.2.4-.4.8-.7,1-.5,2.8-.8,4.8-1,5.6-.7,3.9-3,6-5.3,5.5-2.2-.4-3.4-3.3-2.9-7.2.2-1.4.6-2.9.9-4.3h0c0-.2.1-.9.3-1.9-.8-.5-1.5-1.1-2.3-1.6-2,5.7-8.6,25.1-10.7,31.2.6.7.8,1.7.4,2.4-.4.9-1.5,1.3-2.7,1.1-.5.2-1,.2-1.6,0s-.9-.6-1.1-1.1c0,0,0,0-.1,0h0c-1.1-.5-23.8-9.9-30.7-12.9.3,8.4.4,16.9.7,25.4.5,10.4-6.4,11.2-9.8,18.2-.5.6-.9,1.2-1.4,1.8,4.8-.8,10-1.2,14.2,1.9,3.8,2.9,5.1,8.3,6.5,12.6,2.9,8.9,5.3,17.9,7.2,27,.2.1.4.2.6.4,6.6-.5,25.3,7.1,25,8.9-.2,1.6-1.5,2.9-3.2,3.3-6.5,1.5-13.1,1.8-19.7,1.7-7.3-.1-8-8.6-8.1-9.4-2.4-12-5.5-23.9-9.7-35.3-.8-2-1.7-4.2-4-4.9-2.6-.8-5.6-.2-8.2.2-1.9.3-3.9.6-5.8,1h0c-9.8,14.4-15.4,23.3-57.9,21.4h0c-.5,5.1-1.4,10.6-5.7,13.9-3.8,2.9-9.3,2.7-13.9,2.9-9.3.4-18.7.3-28-.3-.2.2-.3.3-.5.5-1.2,6.2-12.6,21-15,21.7h-.2s0,0,0,0c-1.5-.7-2.4-2.2-2.3-4,.3-6.7,1.8-13.1,3.7-19.5,2.1-7,10.4-5.4,11.3-5.3,12.1.9,24.5,1.1,36.6.1,2.2-.2,4.5-.5,5.8-2.5,1.5-2.3,1.7-5.3,2-7.9-4-.2-8.2-.6-12.8-1-24.1-3.7-31.5-13.3-32.2-68.2-5.6-2-11.3-4.1-14.7-5.3-.9,3.2-8,28.2-9.5,33,.6,1,0,2.2-1.1,3.1-.3.2-.5.7-.7,1,0,0,0,0,0,0-.3,1.7-5.4,6.6-7.4,7.1-1.2.3-2.1,0-2.7-.8-.5-.8-.4-1.7.3-2.5.3-.4.8-.7,1.4-1.3h0c-2.3.3-4.2.6-6.2.8-.6,0-1.3.2-1.9.2C.8,138.6,0,137.8,0,136.8s0-.1,0-.2c.1-1.1,1.1-2.1,2.5-2.3,1.6-.3,3.2-.4,4.8-.8-.8-.1-1.7-.3-2.5-.5-.7-.1-1.4-.3-2-.5-1.1-.5-1.5-1.6-1-2.6s1.8-1.7,3.1-1.5c1.2.2,2.5.4,3.8.4-.7-.3-1.4-.5-2.1-.8-1-.5-1.5-1.3-1.2-2.4.3-1,1.1-1.6,2.2-1.8.5,0,1.1,0,1.5,0,.8.2,1.7.4,2.3.8,1.7,1,3.3,2.1,5,3.2,1.7-5.8,7.3-25.5,9.1-31.7-.7-.7-.9-1.6-.6-2.4.4-1,1.4-1.4,2.7-1.3.5-.2,1-.3,1.6-.1.5.2.9.5,1.2,1,0,0,0,0,.1,0,.6.2,6.9,2.5,13.9,5,0-3.2,0-6.5,0-10,5.1-40,9.6-25,43.5-36-2.8-2.4-5.4-5-7.9-7.7-1-1.1-2.2-2.5-2-4.2.2-1.7,1.8-2.8,3.2-3.4,5.4-2.4,12.5-2.3,16.6-7.2,1-1.2,1.2-2.5,1.8-3.8.5-1.3,1.6-2.2,2.9-2.8,3-1.4,6.4-1.5,9.6-1.6,3.3-.2,6.4-.6,9.4-2.1,2.8-1.4,4.9-3.9,7.5-5.7,2.7-1.9,5.9-2.7,9.2-3.1,3.3-.5,6.6-.9,9.8-.2.4,0,.8,0,1.1.2,3.6,1.5,6.5,4.1,9.3,6.8,2.5,2.4,5,4.9,8,6.7,1.5.9,3.1,1.3,4.8,1.9,1.7.5,2.7,1.9,2.6,3.7-.1,2-1.5,3.5-2.7,5-1.4,1.7-2.7,3.5-3.8,5.4-2.2,3.5-3.8,7.4-3.9,11.6.1,0,.2,0,.3.1.8.4.1,1.1-.3,1.4,0,0-.1,0-.2.1,0,.3,0,.6,0,.9.6.3.3.8,0,1.1,0,.8-.2,1.7-.3,2.5,1.6.7,2.7,1.8,2.8,3.3,2.4,11.2,3.3,22,3.8,32.7.4,0,.8.2,1.2.4,1.7.8,22.7,9.5,30.6,12.9,1.1-3.2,9.4-27.8,11.1-32.4-.5-1,0-2.2,1.2-3,.3-.2.5-.6.8-1,0,0,0,0,0,0,.3-1.4,4-4.8,6.4-6.1,3.4-21.5,8.9-55.9,9.6-59,.7-2.8,1.9-4.8,4-5.3.3,0,.6-.1.9-.1h3.1Z"/>
  <g id="Layer_1-2">
    <g>
      <path class="st1" d="M160.5,142.5c-.5.6-.9,1.2-1.4,1.8h0c-2,2.6-3.6,5-5.2,7.3h0c-9.8,14.4-15.4,23.3-57.9,21.4h0c-2,0-4.1-.2-6.4-.3-4-.2-8.2-.6-12.8-1-24.1-3.7-31.5-13.3-32.2-68.2,0-1.6,0-3.3,0-5,0-3.2,0-6.5,0-10,5.1-40,9.6-25,43.5-36,.2,0,.4-.1.6-.2.3-.1.6-.2,1-.3.7-.3,1.4-.6,2.1-.9.2,0,.3-.1.4-.2,2.9-1,5.6-1.2,8.3-1,0,.3.1.7.2,1,0,.2.2.5.3.8.2.3.3.7.6,1h0c.2.3.4.6.7.8,0,0,.1.1.2.2,0,0,0,0,0,0-.1,0-.2,0-.3-.1h0c-.2,0-.3-.1-.5-.2-.2,0-.4-.1-.5-.2-.4,0-.9,0-1.3,0-.3,0-.6,0-.9,0h0c-9.5.7-19,5.5-27.5,6.4-7.4,2.6-16.2,1.4-19.6,8.3-2.1,9.4-3.4,20.3-3.6,31.8,0,1.7,0,3.3,0,5,0,18.8,3,38.6,9.5,55.2,5.5,5.4,18.2,8.4,32.6,9.2,2.1.1,4.2.2,6.4.2,14.5.1,29.7-1.7,40.7-5.4,4.5-3.2,7.9-7.1,11-11.2,1.8-2.4,3.4-4.8,5.1-7.3,2.9-4.3,5.9-8.5,9.8-12.3,3.8-5.7,4.4-20.8,3.7-35.9,0-1,0-2-.2-2.9-.9-16-3-31.3-4-34.3,0,0,0,0,0,0-.2,0-.4,0-.6,0,.3-.7.5-1.4.6-2.2.2,0,.3.1.5.2,1.6.7,2.7,1.8,2.8,3.3,2.4,11.2,3.3,22,3.8,32.7,0,1.7.1,3.4.2,5.1.3,8.4.4,16.9.7,25.4.5,10.4-6.4,11.2-9.8,18.2Z"/>
      <path class="st1" d="M96.8,131.6c2.7.3,73.1,4.4,57.8-4-20.3.9-58,4.7-60.5-1.2-3.6-8.5-3.3-35.2,0-53.6,1.1-.6,1.2-12.1-1.1-9.2-10.6,16.4,3.7,67.6-6.4,70.3.5,5.3,8.2-1.8,10.1-2.4h0Z"/>
      <path class="st1" d="M65.7,108c0,1-.6,1.8-1.7,1.9-.9,0-2-.1-2.9-.5-.9-.3-6.7-2.4-13.3-4.8-1.1-.4-2.2-.8-3.3-1.2-5.6-2-11.3-4.1-14.7-5.3-1.5-.5-2.5-.9-3-1.1-.5-.2-1-.5-1.3-.9-.7-.7-.9-1.6-.6-2.4.4-1,1.4-1.4,2.7-1.3.3,0,.6.1,1,.2.6.2,1.1.5,1.7.7,0,0,0,0,.1,0,.6.2,6.9,2.5,13.9,5,1.1.4,2.3.8,3.4,1.2,7.6,2.7,15,5.4,15.9,5.9,1.2.6,2,1.4,1.9,2.6Z"/>
      <path class="st1" d="M30.6,95.9c-.1.6-.4,1.3-.6,1.9h0s0,.2,0,.3c-.9,3.2-8,28.2-9.5,33-.1.3-.2.5-.2.7-.5,1.2-1.3,2-2.4,2.1-1,0-1.8-.4-2-1.5-.2-.9,0-2,.3-2.9,0-.2.2-.8.5-1.5,1.7-5.8,7.3-25.5,9.1-31.7.2-.8.4-1.4.5-1.7.3-1,.9-1.7,1.6-2,.5-.2,1-.3,1.6-.1.5.2.9.5,1.2,1,.3.7.4,1.5.2,2.5Z"/>
      <path class="st1" d="M19.3,134.1c-.3.2-.5.7-.7,1,0,0,0,0,0,0-.3,1.7-5.4,6.6-7.4,7.1-1.2.3-2.1,0-2.7-.8-.5-.8-.4-1.7.3-2.5.3-.4.8-.7,1.4-1.3h0c-2.3.3-4.2.6-6.2.8-.6,0-1.3.2-1.9.2C.8,138.6,0,137.8,0,136.8s0-.1,0-.2c.1-1.1,1.1-2.1,2.5-2.3,1.6-.3,3.2-.4,4.8-.8-.8-.1-1.7-.3-2.5-.5-.7-.1-1.4-.3-2-.5-1.1-.5-1.5-1.6-1-2.6s1.8-1.7,3.1-1.5c1.2.2,2.5.4,3.8.4-.7-.3-1.4-.5-2.1-.8-1-.5-1.5-1.3-1.2-2.4.3-1,1.1-1.6,2.2-1.8.5,0,1.1,0,1.5,0,.8.2,1.7.4,2.3.8,1.7,1,3.3,2.1,5,3.2.9.6,1.7,1.1,2.6,1.7.5.4.9.9,1.2,1.4,0,0,0,.1,0,.2.6,1,0,2.2-1.1,3.1Z"/>
      <path class="st1" d="M163.1,54.2c0,.4,0,.8,0,1.1,0,.8-.2,1.7-.3,2.5-.1.7-.3,1.4-.5,2-.1.5-.3,1-.5,1.5-.8,2.4-1.9,4.7-3.4,6.7-3.3,4.2-8.2,5.3-13.3,5.3-5.6,0-11.3-.7-16.5-2.7-5.3-2-10.2-5.2-15-8.2-2.6-1.6-5.2-3.2-7.8-4.8-1-.6-2-1.3-3-2-.1-.1-.3-.2-.4-.3h0c-.8-.6-1.5-1.2-2.1-1.8-.2-.2-.4-.4-.6-.5,0,0-.1-.1-.2-.2h0c-.4-.4.5-1,1.5-1.3.5-.2,1-.3,1.5-.2.2,0,.4.1.5.2s0,0,.1.1h0c.5.5,1,1,1.5,1.4.2.2.4.3.6.5.6.5,1.2.9,1.8,1.3.7.5,1.5,1,2.3,1.5,2.5,1.6,5,3.1,7.6,4.7,4.4,2.7,8.8,5.7,13.7,7.7,4.7,1.9,9.7,2.9,14.8,2.9,2.1,0,4.8.2,6.8-.8,1.8-.9,3.1-2.6,4.1-4.3,1.9-3.2,3.3-7.2,3.4-11,0-.9,0-1.8-.2-2.7h0c0-.1,0-.3,0-.4,0-.1.2-.2.3-.3.9-.7,3.2-1,3.3-.3,0,.1,0,.3,0,.4,0,.3,0,.6.1.9,0,.3,0,.6,0,.9Z"/>
      <path class="st1" d="M163.1,55.3c0,0-.2.2-.3.2-.7.4-1.8.7-2.6.4-.2-.1-.5-.2-.8-.3-16.7-7.4-35.3-5.7-52.5-.7-.9.2-1.7.5-2.6.8-.3,0-1.1.2-1.6,0-.2,0-.3-.2-.4-.3h0c0,0,0,0,0-.1-.2-.8,1.1-1.2,1.6-1.4.4-.1.8-.2,1.2-.4,4-1.2,8.1-2.2,12.2-3.1,10.5-2.1,21.5-2.7,32-.7,0,0,0,0,.2,0,3.3.6,6.6,1.5,9.8,2.8.2,0,.4.2.6.2,0,0,0,0,0,0,.2,0,.4.2.6.2.5.2,1,.4,1.5.6.4.2.8.3,1.2.5.6.3.3.8,0,1.1Z"/>
      <path class="st1" d="M163.3,53.2c0,0-.1,0-.2.1-.3.2-.7.3-1.1.4-.5,0-.9,0-1.3-.1-.5-.2-1-.4-1.5-.6-3.2-1.3-6.5-2.4-9.8-3.1,0,0-.1,0-.2,0-14.7-3.2-30.3-1-44.7,3.3-.4.1-.7.2-1.1.3-.2,0-.7.2-1.1.1,0,0,0,0,0,0-.2,0-.3,0-.5,0-.2,0-.3-.1-.4-.2,0,0,0-.1-.1-.2,0-.2,0-.3,0-.5h0c.3-.5,1-.7,1.5-.9,0,0,0,0,0,0h0c4.5-1.4,9.1-2.6,13.7-3.5,8.1-1.6,16.6-2.4,24.9-1.7.2,0,.4,0,.5,0,.1,0,.2,0,.3,0,.9,0,1.9.2,2.8.3h0c4.9.6,9.7,1.7,14.4,3.4,1.2.4,2.4.9,3.6,1.5.1,0,.2,0,.3.1.8.4.1,1.1-.3,1.4Z"/>
      <path class="st1" d="M134.6,28c3.3-1.5,6.2-3.9,8.2-7-1.2.3-2.5.5-3.7.8,1.1,1.9,2.3,3.9,4.2,5.2,1.8,1.3,4.1,1.9,6.3,1.8.9,0,1.9-.2,2.6-.7.5-.4.6-.8-.2-.8-2,0-3.9-.5-5.4-1.7-1.6-1.2-2.7-3-3.7-4.8-.3-.5-1.4-.2-1.8-.1-.6.1-1.6.4-1.9.9-1.6,2.6-3.9,4.7-6.6,5.9-.4.2-1.2.7-.5.9.7.3,2-.2,2.6-.5h0Z"/>
      <path class="st1" d="M131.4,28.6c0,3.7-.1,7.8,1.6,11.1.8,1.5,1.9,2.3,3.5,2.9,1.6.6,3,1.5,3.9,3,.6,1,4.1-.3,3.7-1-.8-1.4-2-2.4-3.4-3.1-.7-.3-1.6-.5-2.3-1-.7-.5-1.3-1.1-1.6-1.9-1.7-3.4-1.6-7.5-1.6-11.1,0-.8-3.7-.2-3.7,1h0Z"/>
      <path class="st1" d="M148.6,28.5c.5,2.4.5,4.8.4,7.3,0,1.1,0,2.2-.5,3.2-.4.9-1.3,1.4-2.1,1.9-1.7,1.1-3.3,2.5-4.3,4.3-.4.7-1,1.9,0,2.3,1.1.4,3.1-.2,3.6-1.3.3-.8-1.2-.7-1.6-.7-.8,0-1.8.4-2.1,1.2h0c0,.1,1.6-1,1.6-1,0,0-.1,0-.2,0h1.7c0,0-.1,0-.1,0l.4.4c-.2-.7.7-1.7,1-2.2.5-.6,1.1-1.1,1.7-1.6,1.4-1,3-1.8,3.9-3.4.8-1.5.7-3.4.7-5.2,0-2.1,0-4.2-.4-6.2-.2-1.1-4-.2-3.7,1h0Z"/>
      <path class="st1" d="M148.9,12.2c-.4.5-1,.7-1.7.8-.3,0-.7,0-1,0-3.2-.7-7.1,0-10.3.6-1.6.3-3.2.8-4.5,1.7-1.3.9-2.5,2-3.7,3-4.6,4-10.1,5.6-16.1,5.9-1.6,0-3.3.1-4.9.4-1,.2-2.5.3-3.3,1.1-.4.4-.5,1.2-.7,1.8-.2.6-.4,1.1-.7,1.6-.6,1-1.3,2-2.2,2.8-4.3,4.1-10.1,5-15.6,6.7-1.2.4-3,.7-2.4,2.4.4,1.2,1.8,2.3,2.6,3.3,2.1,2.2,4.4,4.4,6.8,6.4,0,0,.2.1.2.2,0,0,0,0,0,0,.9.9-.2,1.9-1.3,2.2-.6.2-1.2.1-1.6-.2-.2-.2-.5-.4-.7-.6-2.8-2.4-5.4-5-7.9-7.7-1-1.1-2.2-2.5-2-4.2.2-1.7,1.8-2.8,3.2-3.4,5.4-2.4,12.5-2.3,16.6-7.2,1-1.2,1.2-2.5,1.8-3.8.5-1.3,1.6-2.2,2.9-2.8,3-1.4,6.4-1.5,9.6-1.6,3.3-.2,6.4-.6,9.4-2.1,2.8-1.4,4.9-3.9,7.5-5.7,2.7-1.9,5.9-2.7,9.2-3.1,3.3-.5,6.6-.9,9.8-.2.2,0,.4,0,.6.1h0c.9.2,1,1.1.5,1.7Z"/>
      <path class="st1" d="M89.4,53c2.1.4,4.1.5,6.2.3.8,0,1.7-.2,2.5-.2-.3,0,.3,0,.4,0,.2,0,.3,0,.5,0-.2,0,.3,0,.4.1.2,0,.2,0,.4.2.8.5,1.9.2,2.6-.3.6-.4,1.1-1.2.3-1.7-1.8-1-3.8-.9-5.8-.7-1.9.2-3.5.3-5.3,0-.9-.2-2,0-2.6.7-.5.6-.4,1.4.4,1.6h0Z"/>
      <path class="st1" d="M173.7,29.7c-.1,2-1.5,3.5-2.7,5-1.4,1.7-2.7,3.5-3.8,5.4-2.2,3.5-3.8,7.4-3.9,11.6h0c0,.3-.1.5-.3.7-.5.5-1.7.8-2.5.7-.2,0-.5-.1-.6-.2,0,0,0,0,0,0-.2-.1-.3-.3-.3-.5,0,0,0,0,0,0,0-.7,0-1.3.1-1.9.5-3.8,2.1-7.4,4.2-10.7,1.1-1.7,2.3-3.4,3.6-5,1.1-1.4,2.8-3,2.4-5-.4-1.8-2.6-1.9-4.1-2.4-1.5-.6-2.9-1.4-4.2-2.4-5-3.6-8.8-8.9-14.3-11.7-.4-.2-.8-.4-1.2-.5-.8-.4-.2-1.2.3-1.5.4-.3,1-.5,1.5-.5.4,0,.8,0,1.1.2,3.6,1.5,6.5,4.1,9.3,6.8,2.5,2.4,5,4.9,8,6.7,1.5.9,3.1,1.3,4.8,1.9,1.7.5,2.7,1.9,2.6,3.7Z"/>
      <path class="st1" d="M205.7,111.7c-.4.9-1.5,1.3-2.7,1.1-.3,0-.6-.1-1-.2-.6-.2-1.1-.5-1.7-.8,0,0,0,0-.1,0h0c-1.1-.5-23.8-9.9-30.7-12.9-1-.4-1.6-.7-1.9-.9-.5-.3-.9-.6-1.2-.9-.4-.5-.6-1-.6-1.7,0-.5.2-.9.4-1.2.3-.3.7-.6,1.3-.6.5,0,1.2,0,1.7.2.4,0,.8.2,1.2.4,1.7.8,22.7,9.5,30.6,12.9,1.5.6,2.5,1.1,2.9,1.2.5.2,1,.6,1.3.9.6.7.8,1.7.4,2.4Z"/>
      <path class="st1" d="M216.6,76.6c0,.2-.3.7-.5,1.5-2,5.7-8.6,25.1-10.7,31.2-.3.8-.5,1.4-.6,1.7-.4,1-1,1.6-1.7,1.9-.5.2-1,.2-1.6,0s-.9-.6-1.1-1.1c-.3-.7-.3-1.6,0-2.6.2-.6.5-1.2.7-1.9h0s0-.1.1-.3c1.1-3.2,9.4-27.8,11.1-32.4.1-.3.2-.5.3-.7.5-1.2,1.4-2,2.5-2,1,0,1.8.5,1.9,1.6,0,.9,0,2-.4,2.9Z"/>
      <path class="st1" d="M232.9,70.1c-.2,1.1-1.2,2-2.6,2.2-.9,0-1.7.2-2.6.2-.8,0-1.5.2-2.3.3.7.2,1.5.3,2.2.5,0,0,.2,0,.3,0,.7.2,1.4.3,2,.6,1.1.5,1.4,1.7.8,2.7-.6,1-1.9,1.6-3.2,1.4-.2,0-.5,0-.7-.1-1-.2-2-.4-3.1-.5.7.3,1.4.6,2.1,1,.3.2.6.4.8.6.4.5.5,1.1.2,1.8-.2.4-.4.8-.7,1-.4.4-.9.6-1.6.6-.5,0-1.1,0-1.5-.2-.8-.3-1.6-.5-2.3-1-.9-.6-1.7-1.2-2.5-1.8-.8-.5-1.5-1.1-2.3-1.6-.8-.6-1.7-1.2-2.5-1.8-.5-.4-.9-.9-1.2-1.4,0,0,0-.1,0-.2-.5-1,0-2.2,1.2-3,.3-.2.5-.6.8-1,0,0,0,0,0,0,.3-1.4,4-4.8,6.4-6.1.5-.3,1-.5,1.4-.6,1.2-.2,2.1,0,2.6,1,.5.8.3,1.7-.5,2.4-.3.4-.8.6-1.5,1.2,2.1-.2,3.9-.3,5.7-.5.2,0,.3,0,.5,0,.7,0,1.3-.1,1.9,0,1.4.2,2.1,1.1,2,2.2Z"/>
      <path class="st1" d="M97.9,154.3c-.5,5-1.1,9.9-1.6,14.9-.1,1.3-.3,2.5-.4,3.8h0s0,0,0,0h0c-.5,5.1-1.4,10.6-5.7,13.9-3.8,2.9-9.3,2.7-13.9,2.9-9.3.4-18.7.3-28-.3-.2.2-.3.3-.5.5-1.2,6.2-12.6,21-15,21.7h-.2s0,0,0,0c-1.5-.7-2.4-2.2-2.3-4,.3-6.7,1.8-13.1,3.7-19.5,2.1-7,10.4-5.4,11.3-5.3,12.1.9,24.5,1.1,36.6.1,2.2-.2,4.5-.5,5.8-2.5,1.5-2.3,1.7-5.3,2-7.9h0c.1-1.2.3-2.4.4-3.7.6-5.3,1.1-10.7,1.7-16,.2-1.7,2.2-2.8,3.8-2.5,1.8.4,2.7,2.1,2.5,3.8Z"/>
      <path class="st1" d="M238.3,5.2v.8c0,1-.1,2.1-.3,3.1-.6,3.3-5.9,36.6-9.5,58.9-.2,1.6-.5,3.1-.7,4.6,0,.3,0,.6-.1.8-.3,1.6-.5,3.2-.8,4.6,0,.4-.1.8-.2,1.1-.2,1-.3,2-.5,2.8-.5,2.8-.8,4.8-1,5.6-.7,3.9-3,6-5.3,5.5-2.2-.4-3.4-3.3-2.9-7.2.2-1.4.6-2.9.9-4.3h0c0-.2.1-.9.3-1.9.5-2.8,1.3-8.3,2.4-15.2,3.4-21.5,8.9-55.9,9.6-59,.7-2.8,1.9-4.8,4-5.3.3,0,.6-.1.9-.1,1.4,0,2.5.9,2.8,2.7.2.8.2,1.6.2,2.5Z"/>
      <path class="st1" d="M212.6,195.2c-.2,1.6-1.5,2.9-3.2,3.3-6.5,1.5-13.1,1.8-19.7,1.7-7.3-.1-8-8.6-8.1-9.4-2.4-12-5.5-23.9-9.7-35.3-.8-2-1.7-4.2-4-4.9-2.6-.8-5.6-.2-8.2.2-1.9.3-3.9.6-5.8,1h0c-2,.3-3.9.7-5.9,1-2.6.4-5.2.9-7.8,1.3-1.7.3-3.3-1.4-3.4-3-.1-1.8,1.3-3.1,3-3.4,4.4-.7,8.9-1.5,13.3-2.2,1.8-.3,3.5-.6,5.3-.9h0c.3,0,.5,0,.8-.1h0c4.8-.8,10-1.2,14.2,1.9,3.8,2.9,5.1,8.3,6.5,12.6,2.9,8.9,5.3,17.9,7.2,27,.2.1.4.2.6.4,6.6-.5,25.3,7.1,25,8.9Z"/>
      <path class="st1" d="M111.6,88c1.4-.2,2.6,0,3.6.4.7.3,1.1.7,1.2,1.2.1.5,0,.9-.6,1.2-.2.1-.4.2-.6.2-.2,0-.5-.1-1-.3-.4-.2-.7-.3-.9-.3s-.5,0-.9,0c-.4,0-.7.1-.9.1-.4,0-1.1.2-2.1.8s-1.8,1-2.4,1.4c-.5.5-.9.9-1.1,1.3-.2.4-.3.9-.3,1.6s0,.8.1,1,.3.6.6,1c1.5,2,3.8,3,6.9,3s2.2,0,2.6-.3c.3-.1.5-.2.7-.2.1,0,.3,0,.6.2.3.2.5.3.5.4,0,.1,0,.3,0,.6,0,.6-.3,1-.7,1.2-.5.2-1.4.3-2.8.4-1.5,0-2.6,0-3.4-.2s-1.7-.4-2.7-.9c-.8-.4-1.7-1-2.5-1.8-.8-.8-1.4-1.5-1.8-2.2-.5-.9-.6-1.9-.5-3,.1-1.1.5-2.1,1.2-2.8.7-.8,1.7-1.6,3.2-2.5,1.5-.8,2.7-1.3,3.8-1.5h0Z"/>
      <path class="st1" d="M124.6,82.3c.2-.3.5-.4.8-.3.5,0,.8.3,1,.7.2.3.3,1,.4,1.9.3,2.5.3,4.5,0,6.2l-.2,1.1h1.7c2.8.3,4.4.5,4.8.8.2.2.3.4.2.9,0,.4-.1.7-.3.9-.3.2-1.8.2-4.6,0l-2.1-.2-.4,1.5c-.3,1.2-.7,2.5-1,3.9-.4,1.6-.8,2.7-1.1,3-.2.3-.4.4-.5.4s-.3,0-.5-.1c-.3-.2-.6-.5-.7-.9s-.1-.9,0-1.5.2-1.1.2-1.5.2-1.1.6-1.8c.4-.7.6-1.4.7-2v-1c.1,0-1.5,0-1.5,0-1,0-1.8,0-2.3-.2-.6-.2-1-.4-1.1-.9s0-.8.5-1.2c.2-.2.5-.3.8-.3s1,0,2,0h2.3c0,.1,0-4.5,0-4.5,0-2,0-3.2,0-3.8s.1-1,.3-1.2h0Z"/>
      <path class="st1" d="M142.9,87.5c.7-.2,1.4-.2,2.1,0s1.2.3,1.4.6c.2.3.3.6.2,1,0,.4-.1.7-.4.9-.5.5-1,.5-1.7.1-.2-.1-.4-.2-.6-.2s-.4,0-.8.1c-1.9.6-3.4,2.1-4.7,4.5-.9,1.8-1.5,3.4-1.7,4.9-.1.9-.4,1.5-.9,1.8-.5.3-.9.1-1.4-.5-.2-.2-.2-.5-.2-.7,0-.2,0-.7.1-1.5.4-2.4.6-4.7.7-7.1,0-1.6.2-2.6.4-2.8.4-.5.9-.5,1.4-.1.5.4.7,1,.7,1.9s0,.5.1.5.4-.3,1.2-1c.6-.5,1.2-1,2-1.5.8-.5,1.4-.8,2-.9h0Z"/>
      <path class="st1" d="M152.1,84.1c.1-.3.4-.4.8-.4,1,0,1.3.8,1.1,2.3,0,.2,0,.4-.1.8,0,.4-.1.8-.2,1.4,0,.6-.2,1-.2,1.4-.5,2.9-1.1,5.9-1.8,8.8,0,.2-.1.4-.2.8-.8,3.1-1.3,4.9-1.5,5.4-.2.5-.6.7-1,.7,0,0,0,0,0,0-.5,0-.8-.2-1-.6-.2-.3-.2-1-.2-2,0-.7,0-1.2.1-1.4,0-.2.2-.4.4-.6.3-.3.7-1.1,1.1-2.6.7-2.5,1.2-4.8,1.6-7.1,0-.2.1-.8.3-1.6.2-.8.2-1.5.2-2s.1-.9.3-1.7c.2-.8.4-1.3.5-1.7h0Z"/>
    </g>
  </g>
</svg>